<svg width="470" height="470" xmlns="http://www.w3.org/2000/svg" xmlns:xlink="http://www.w3.org/1999/xlink" xml:space="preserve" overflow="hidden"><g transform="translate(-708 -884)"><path d="M1109.31 1280.56 786.333 1280.56 786.333 957.438 776.542 957.438 776.542 1290.35 1109.31 1290.35 1109.31 1280.56Z"/><path d="M1109.46 957.438 1031.12 957.438 1031.12 1251.19 1109.46 1251.19ZM1099.67 1241.4 1040.92 1241.4 1040.92 967.229 1099.67 967.229Z"/><path d="M923.417 1251.19 1001.75 1251.19 1001.75 1065.15 923.417 1065.15ZM933.208 1074.94 991.958 1074.94 991.958 1241.4 933.208 1241.4Z"/><path d="M815.708 1251.19 894.042 1251.19 894.042 1153.27 815.708 1153.27ZM825.5 1163.06 884.25 1163.06 884.25 1241.4 825.5 1241.4Z"/><path d="M819.17 1117.57 962.515 974.22C962.534 974.201 962.565 974.202 962.584 974.221 962.593 974.23 962.598 974.242 962.598 974.255L962.598 1021.08 972.39 1021.08 972.39 957.438 908.876 957.438 908.876 967.229 955.543 967.229C955.57 967.23 955.592 967.252 955.592 967.279 955.591 967.291 955.586 967.304 955.577 967.312L812.247 1110.64Z"/></g></svg>