<svg width="442" height="442" xmlns="http://www.w3.org/2000/svg" xmlns:xlink="http://www.w3.org/1999/xlink" xml:space="preserve" overflow="hidden"><g transform="translate(-2508 -884)"><path d="M2724.4 1003.82 2724.4 1035.94 2733.6 1035.94 2733.6 1003.8C2755.05 1004.3 2776.24 1008.47 2796.27 1016.14L2784.62 1043.3 2793.09 1046.93 2804.79 1019.61C2818.83 1025.8 2832.06 1033.68 2844.2 1043.06L2851.33 1036.96C2765.55 969.31 2641.17 984.005 2573.51 1069.79 2545.95 1104.74 2530.98 1147.97 2531.02 1192.48L2531.02 1210.9 2540.23 1210.9 2540.23 1192.48C2540.22 1169.48 2544.43 1146.68 2552.66 1125.2L2579.82 1136.86 2583.45 1128.39 2556.14 1116.69C2564.98 1096.63 2577.24 1078.26 2592.38 1062.39L2615.22 1085.23 2621.73 1078.72 2598.89 1055.88C2614.75 1040.75 2633.12 1028.49 2653.18 1019.64L2664.89 1046.96 2673.35 1043.33 2661.72 1016.14C2681.76 1008.48 2702.95 1004.32 2724.4 1003.82Z"/><path d="M2886.38 1072.56 2880.34 1079.77C2888.88 1091.22 2896.1 1103.6 2901.85 1116.68L2874.52 1128.39 2878.15 1136.86 2905.37 1125.19C2913.59 1146.67 2917.79 1169.48 2917.77 1192.48L2917.77 1210.9 2926.98 1210.9 2926.98 1192.48C2927.02 1149.13 2912.75 1106.97 2886.38 1072.56Z"/><path d="M2884.16 1039.28C2882.46 1037.59 2879.75 1037.49 2877.93 1039.04L2714.27 1178.73C2713.38 1179.32 2712.61 1180.05 2711.96 1180.9 2711.81 1181.09 2711.64 1181.3 2711.15 1181.82 2703.29 1191.51 2704.56 1205.69 2714 1213.85 2718.04 1217.21 2723.13 1219.06 2728.39 1219.05 2735.11 1219.03 2741.5 1216.1 2745.89 1211.01L2884.47 1045.49C2886 1043.65 2885.86 1040.95 2884.16 1039.28ZM2738.86 1205.03C2734.11 1210.66 2725.73 1211.48 2719.99 1206.87 2714.41 1202.11 2713.52 1193.82 2717.96 1187.99 2718.39 1187.56 2718.75 1187.13 2719.08 1186.73 2719.16 1186.63 2719.23 1186.53 2719.31 1186.44 2719.52 1186.31 2719.73 1186.16 2719.92 1186.01L2841.72 1082.06C2841.74 1082.04 2841.77 1082.04 2841.79 1082.06 2841.81 1082.08 2841.81 1082.11 2841.79 1082.13Z"/></g></svg>