<svg width="410" height="410" xmlns="http://www.w3.org/2000/svg" xmlns:xlink="http://www.w3.org/1999/xlink" xml:space="preserve" overflow="hidden"><g transform="translate(-1596 -884)"><path d="M1788.19 990.771 1886.42 990.771 1886.42 999.312 1788.19 999.312Z"/><path d="M1788.19 1054.83 1886.42 1054.83 1886.42 1063.38 1788.19 1063.38Z"/><path d="M1788.19 1118.9 1886.42 1118.9 1886.42 1127.44 1788.19 1127.44Z"/><path d="M1788.19 1182.96 1886.42 1182.96 1886.42 1191.5 1788.19 1191.5Z"/><path d="M1672.88 1259.83 1929.12 1259.83 1929.12 918.167 1672.88 918.167ZM1681.42 926.708 1920.58 926.708 1920.58 1251.29 1681.42 1251.29Z"/><path d="M1715.58 1014.26 1754.02 1014.26 1754.02 975.823 1715.58 975.823ZM1724.12 984.365 1745.48 984.365 1745.48 1005.72 1724.12 1005.72Z"/><path d="M1715.58 1078.32 1754.02 1078.32 1754.02 1039.89 1715.58 1039.89ZM1724.12 1048.43 1745.48 1048.43 1745.48 1069.78 1724.12 1069.78Z"/><path d="M1715.58 1142.39 1754.02 1142.39 1754.02 1103.95 1715.58 1103.95ZM1724.12 1112.49 1745.48 1112.49 1745.48 1133.84 1724.12 1133.84Z"/><path d="M1715.58 1206.45 1754.02 1206.45 1754.02 1168.01 1715.58 1168.01ZM1724.12 1176.55 1745.48 1176.55 1745.48 1197.91 1724.12 1197.91Z"/></g></svg>